<svg width="28" height="28" viewBox="0 0 28 28" fill="none" xmlns="http://www.w3.org/2000/svg">
<g id="uil:mouse-alt">
<path id="Vector" d="M14 6.99998C13.6905 6.99998 13.3938 7.1229 13.175 7.34169C12.9562 7.56048 12.8333 7.85723 12.8333 8.16665V10.5C12.8333 10.8094 12.9562 11.1061 13.175 11.3249C13.3938 11.5437 13.6905 11.6666 14 11.6666C14.3094 11.6666 14.6061 11.5437 14.8249 11.3249C15.0437 11.1061 15.1666 10.8094 15.1666 10.5V8.16665C15.1666 7.85723 15.0437 7.56048 14.8249 7.34169C14.6061 7.1229 14.3094 6.99998 14 6.99998ZM14 2.33331C11.834 2.33331 9.7568 3.19373 8.22525 4.72527C6.6937 6.25682 5.83329 8.33405 5.83329 10.5V17.5C5.83329 19.6659 6.6937 21.7431 8.22525 23.2747C9.7568 24.8062 11.834 25.6666 14 25.6666C16.1659 25.6666 18.2431 24.8062 19.7747 23.2747C21.3062 21.7431 22.1666 19.6659 22.1666 17.5V10.5C22.1666 8.33405 21.3062 6.25682 19.7747 4.72527C18.2431 3.19373 16.1659 2.33331 14 2.33331ZM19.8333 17.5C19.8333 19.0471 19.2187 20.5308 18.1247 21.6248C17.0308 22.7187 15.5471 23.3333 14 23.3333C12.4529 23.3333 10.9691 22.7187 9.87517 21.6248C8.78121 20.5308 8.16662 19.0471 8.16662 17.5V10.5C8.16662 8.95288 8.78121 7.46915 9.87517 6.37519C10.9691 5.28123 12.4529 4.66665 14 4.66665C15.5471 4.66665 17.0308 5.28123 18.1247 6.37519C19.2187 7.46915 19.8333 8.95288 19.8333 10.5V17.5Z" fill="#307189"/>
</g>
</svg>
